<svg id="visual" viewBox="0 0 1440 200" width="1440" height="200" xmlns="http://www.w3.org/2000/svg" xmlns:xlink="http://www.w3.org/1999/xlink" version="1.1"><rect x="0" y="0" width="1440" height="200" fill="#ffffff"></rect><path d="M0 115L160 115L160 87L320 87L320 119L480 119L480 101L640 101L640 105L800 105L800 99L960 99L960 132L1120 132L1120 83L1280 83L1280 101L1440 101L1440 107L1440 201L1440 201L1280 201L1280 201L1120 201L1120 201L960 201L960 201L800 201L800 201L640 201L640 201L480 201L480 201L320 201L320 201L160 201L160 201L0 201Z" fill="#e5c5ab" stroke-linecap="square" stroke-linejoin="miter"></path></svg>