<svg id="visual" viewBox="0 0 1440 200" width="1440" height="200" xmlns="http://www.w3.org/2000/svg" xmlns:xlink="http://www.w3.org/1999/xlink" version="1.1"><path d="M0 94L160 94L160 112L320 112L320 85L480 85L480 113L640 113L640 133L800 133L800 115L960 115L960 87L1120 87L1120 99L1280 99L1280 92L1440 92L1440 103L1440 201L1440 201L1280 201L1280 201L1120 201L1120 201L960 201L960 201L800 201L800 201L640 201L640 201L480 201L480 201L320 201L320 201L160 201L160 201L0 201Z" fill="#e5c5ab" stroke-linecap="square" stroke-linejoin="miter"></path></svg>